<svg xmlns="http://www.w3.org/2000/svg" width="500" height="330.833" viewBox="0 0 500 330.833">
  <g id="popsink_-_icon_dark" data-name="popsink - icon dark" transform="translate(-42.671 -16.671)">
    <path id="Path_1238" data-name="Path 1238" d="M1308.9-2048.388c-18.084-.113-32.677-8.243-32.677-26.729,0-18.453,14.593-26.58,32.677-26.693v-225.455h54.07v225.548h35.2c22.392,0,35.164-17.517,35.164-48.028V-2213.8a26.906,26.906,0,0,1,27.083-26.665h86.62c18.265,0,33.072,8.019,33.063,26.921s-14.805,26.408-33.063,26.408c-1.48,0-2.943.106-59.565,0v37.394c0,69.651-46.292,101.357-89.3,101.357H1308.9Z" transform="translate(-1037.432 2395.891)" fill="#051522"/>
    <path id="Path_1239" data-name="Path 1239" d="M1383.9-2285.2v-16.84H1363.6c-22.331,0-35.19,17.519-35.19,48.028v64.028a26.875,26.875,0,0,1-27.017,26.664c-95.385.106-97.456,0-97.456,0-15.651-.47-33.771-9.177-33.934-26.567,0-18.618,15.676-26.761,33.934-26.761h70.336v-37.364c0-69.649,46.308-101.389,89.327-101.389h103.08c18.258,0,33.052,8.081,33.052,26.7,0,18.468-14.56,26.535-32.618,26.662v16.842Z" transform="translate(-1127.329 2372.077)" fill="#051522"/>
  </g>
</svg>
