<svg xmlns="http://www.w3.org/2000/svg" width="978.989" height="184.843" viewBox="0 0 978.989 184.843">
  <g id="popsink_-_logo_light" data-name="popsink - logo light" transform="translate(-21.671 -11.018)">
    <g id="Group_301" data-name="Group 301">
      <path id="p" d="M-372.308-75.488v-1.965c0-14.74,9.748-23.748,22.69-23.912,13.782,0,23.027,9.827,23.027,24.567,0,15.068-9.748,24.894-23.027,24.894C-362.223-51.9-372.308-60.912-372.308-75.488Zm22.018-49.624c-15.127,0-22.825,4.973-26.575,8.035-2.354.655-1.341-4.191-2.773-4.434,0-.628-17.042,1.814-19.563,4.434V9.02h26.892l.336-41.108a79.7,79.7,0,0,0,24.707,4.094c25.884,0,48.574-15.886,48.574-47.659C-298.691-91.047-309.28-125.113-350.29-125.113Z" transform="translate(731.4 183.172)" fill="#fff"/>
      <path id="o" d="M-239.636-68.158c0-14.085,9.916-24.239,23.194-24.239,13.446,0,23.362,10.154,23.362,24.239S-203-43.919-216.442-43.919C-229.719-43.756-239.636-54.073-239.636-68.158Zm-27.564,0c0,25.549,23.362,48.642,50.927,48.642s50.758-23.093,50.758-48.642c0-25.385-23.194-48.642-50.758-48.642C-243.67-116.8-267.2-93.707-267.2-68.158Z" transform="translate(710.33 174.856)" fill="#fff"/>
      <path id="p-2" data-name="p" d="M-107.308-237.976v-1.966c0-14.74,9.748-23.747,22.69-23.911,13.782,0,23.026,9.827,23.026,24.567,0,15.067-9.748,24.894-23.026,24.894C-97.224-214.392-107.308-223.4-107.308-237.976ZM-85.29-287.6c-15.127,0-22.825,4.973-26.574,8.035-2.353.655-1.342-4.191-2.773-4.434,0-.628-17.041,1.814-19.562,4.434v126.1h26.892l.336-41.108a79.694,79.694,0,0,0,24.707,4.095c25.884,0,48.574-15.886,48.574-47.659C-33.691-253.534-44.28-287.6-85.29-287.6Z" transform="translate(689.099 345.66)" fill="#fff"/>
      <path id="i" d="M31.912-26.982H60.066v-97.28H31.912Z" transform="translate(723.189 182.322)" fill="#fff"/>
      <path id="n" d="M-106.271-237.124v-2.886c0-15.043,8.711-23.187,21.652-23.355,13.782,0,16.376,11.2,16.376,26.241v46.8h-38.028ZM-85.29-287.6c-15.127,0-22.825,5.075-26.574,8.2-2.353.668-1.342-4.277-2.773-4.525,0-.641-17.041,1.851-19.562,4.525v89.08h92.5v-46.8C-41.7-252.835-44.28-287.6-85.29-287.6Z" transform="translate(936.169 345.66)" fill="#fff"/>
      <path id="k" d="M276.773-127.087H243.641l-31.553,35.7s0-69.143,0-75.149-.043-8.093-1.2-9.019c-.032-1.087-23,2.229-26.033,5.456V-31.442h27.228V-68.455l31.553,37.014h33.131L236.627-79.756Z" transform="translate(723.888 186.781)" fill="#fff"/>
      <path id="_." data-name="." d="M14.707,0c8.122,0,14.707,4.094,14.707,13.512s-14.707,21-14.707,21S0,22.929,0,13.512,6.584,0,14.707,0Z" transform="translate(754.472 11.018)" fill="#fff"/>
      <path id="s" d="M-47.466-62.192-61.372-47.4c7.251,12.982,19.521,19.113,40.221,19.565,20.236,0,36.734-7.21,36.686-30.383C15.7-84.836-31.1-86-31.1-96.684c0-3.78,2.867-7.23,10.287-7.23,7.589,0,16.3,3.111,23.935,8.395l7.214-18.851c-7.455-6.47-20.187-10.742-34.521-10.742-19.056,0-32.016,10.843-32.417,29.593.169,23.334,54.173,31.219,41.828,43.1C-21.235-47.176-40.842-52.943-47.466-62.192Z" transform="translate(727.284 183.172)" fill="#fff"/>
    </g>
    <g id="Group_302" data-name="Group 302" transform="translate(-21)">
      <path id="Path_1238" data-name="Path 1238" d="M1293.925-2176.216c-9.795-.061-17.7-4.465-17.7-14.477,0-9.995,7.9-14.4,17.7-14.458v-122.114h29.286V-2205.1h19.066c12.128,0,19.046-9.488,19.046-26.014v-34.7a14.573,14.573,0,0,1,14.669-14.442h46.916c9.893,0,17.913,4.343,17.908,14.581s-8.019,14.3-17.908,14.3c-.8,0-1.594.058-32.262,0v20.254c0,37.725-25.073,54.9-48.369,54.9h-48.352Z" transform="translate(-1127.329 2372.077)" fill="#fff"/>
      <path id="Path_1239" data-name="Path 1239" d="M1285.857-2317.382v-9.121h-11c-12.1,0-19.06,9.489-19.06,26.014v34.68a14.556,14.556,0,0,1-14.633,14.442c-51.664.058-52.785,0-52.785,0-8.477-.255-18.292-4.97-18.38-14.39,0-10.084,8.491-14.495,18.38-14.495h38.1v-20.237c0-37.724,25.082-54.915,48.382-54.915h55.831c9.889,0,17.9,4.377,17.9,14.46,0,10-7.886,14.372-17.667,14.441v9.122Z" transform="translate(-1127.329 2372.077)" fill="#fff"/>
    </g>
  </g>
</svg>
